<?xml version="1.0" encoding="utf-8"?><svg xmlns="http://www.w3.org/2000/svg" xmlns:xlink="http://www.w3.org/1999/xlink" style="margin:auto;background:#012c32;display:block;z-index:1;position:relative" width="1920" height="937" preserveAspectRatio="xMidYMid" viewBox="0 0 1920 937">
<g transform="translate(960,468.5) scale(1,1) translate(-960,-468.5)"><path d="M-100 551.71C-64.85 548.46 -65.19 550.12 -31.61 550.12S2.61 551.62 36.77 551.62S71.44 556.95 105.16 556.95S141.28 545.37 173.55 545.37S207.82 562.05 241.94 562.05S276.19 554.39 310.32 554.39S345.04 556.15 378.71 556.15S413.21 551.88 447.1 551.88S482.32 544.92 515.48 544.92S551.16 544.14 583.87 544.14S618.36 547.46 652.26 547.46S686.56 554.83 720.65 554.83S756.63 550.6 789.03 550.6S824.06 548.36 857.42 548.36S891.91 549.28 925.81 549.28S960.9 545.22 994.19 545.22S1030.44 545.64 1062.58 545.64S1097.46 550 1130.97 550S1165.48 552.41 1199.35 552.41S1233.64 560.08 1267.74 560.08S1303.54 546.43 1336.13 546.43S1371.83 562.53 1404.52 562.53S1439 566.83 1472.9 566.83S1508.58 547.66 1541.29 547.66S1575.63 555.13 1609.68 555.13S1644.52 557.72 1678.06 557.72S1712.54 564 1746.45 564S1780.89 548.32 1814.84 548.32S1850.25 553.17 1883.23 553.17S1918.34 563.67 1951.61 563.67S1987.27 557.05 2020 557.05S2055.78 547.26 2088.39 547.26L2020 937 L-100 937 Z" fill="#0f3135" stroke-width="0">
  <animate attributeName="d" dur="25s" repeatCount="indefinite" values="M-100 551.71C-64.85 548.46 -65.19 550.12 -31.61 550.12S2.61 551.62 36.77 551.62S71.44 556.95 105.16 556.95S141.28 545.37 173.55 545.37S207.82 562.05 241.94 562.05S276.19 554.39 310.32 554.39S345.04 556.15 378.71 556.15S413.21 551.88 447.1 551.88S482.32 544.92 515.48 544.92S551.16 544.14 583.87 544.14S618.36 547.46 652.26 547.46S686.56 554.83 720.65 554.83S756.63 550.6 789.03 550.6S824.06 548.36 857.42 548.36S891.91 549.28 925.81 549.28S960.9 545.22 994.19 545.22S1030.44 545.64 1062.58 545.64S1097.46 550 1130.97 550S1165.48 552.41 1199.35 552.41S1233.64 560.08 1267.74 560.08S1303.54 546.43 1336.13 546.43S1371.83 562.53 1404.52 562.53S1439 566.83 1472.9 566.83S1508.58 547.66 1541.29 547.66S1575.63 555.13 1609.68 555.13S1644.52 557.72 1678.06 557.72S1712.54 564 1746.45 564S1780.89 548.32 1814.84 548.32S1850.25 553.17 1883.23 553.17S1918.34 563.67 1951.61 563.67S1987.27 557.05 2020 557.05S2055.78 547.26 2088.39 547.26L2020 937 L-100 937 Z;M-100 549.62C-65.73 559.89 -65.55 545.86 -31.61 545.86S4.47 557.25 36.77 557.25S71.12 545.43 105.16 545.43S140.06 544.01 173.55 544.01S209.02 557.66 241.94 557.66S277.29 543.97 310.32 543.97S346.01 566.33 378.71 566.33S414.77 545.76 447.1 545.76S481.49 545.8 515.48 545.8S551.61 551.18 583.87 551.18S619.67 544.82 652.26 544.82S687.29 552.23 720.65 552.23S756.56 561.02 789.03 561.02S824.39 561.48 857.42 561.48S893.07 562.62 925.81 562.62S961.08 555.25 994.19 555.25S1029.45 558.27 1062.58 558.27S1098.13 555.39 1130.97 555.39S1165.61 564.48 1199.35 564.48S1233.93 546.43 1267.74 546.43S1303.07 558.21 1336.13 558.21S1371.58 552.32 1404.52 552.32S1440.1 560.17 1472.9 560.17S1507.95 553.63 1541.29 553.63S1576.05 560.99 1609.68 560.99S1644.34 563.57 1678.06 563.57S1713.49 545.28 1746.45 545.28S1782.5 549.62 1814.84 549.62S1849.47 545.44 1883.23 545.44S1917.47 553.65 1951.61 553.65S1987.71 564.2 2020 564.2S2054.68 548.7 2088.39 548.7L2020 937 L-100 937 Z;M-100 551.71C-64.85 548.46 -65.19 550.12 -31.61 550.12S2.61 551.62 36.77 551.62S71.44 556.95 105.16 556.95S141.28 545.37 173.55 545.37S207.82 562.05 241.94 562.05S276.19 554.39 310.32 554.39S345.04 556.15 378.71 556.15S413.21 551.88 447.1 551.88S482.32 544.92 515.48 544.92S551.16 544.14 583.87 544.14S618.36 547.46 652.26 547.46S686.56 554.83 720.65 554.83S756.63 550.6 789.03 550.6S824.06 548.36 857.42 548.36S891.91 549.28 925.81 549.28S960.9 545.22 994.19 545.22S1030.44 545.64 1062.58 545.64S1097.46 550 1130.97 550S1165.48 552.41 1199.35 552.41S1233.64 560.08 1267.74 560.08S1303.54 546.43 1336.13 546.43S1371.83 562.53 1404.52 562.53S1439 566.83 1472.9 566.83S1508.58 547.66 1541.29 547.66S1575.63 555.13 1609.68 555.13S1644.52 557.72 1678.06 557.72S1712.54 564 1746.45 564S1780.89 548.32 1814.84 548.32S1850.25 553.17 1883.23 553.17S1918.34 563.67 1951.61 563.67S1987.27 557.05 2020 557.05S2055.78 547.26 2088.39 547.26L2020 937 L-100 937 Z"></animate>
  <animateTransform attributeName="transform" type="translate" dur="25s" begin="0s" repeatCount="indefinite" values="0;10;0" calcMode="spline" keySplines="0.3 0 0.7 1;0.3 0 0.7 1"></animateTransform>
</path><path d="M-100 580.23C-62.78 571.45 -63.19 579.36 -29.8 579.36S6.61 587.5 40.4 587.5S77.18 592.48 110.6 592.48S147.46 584.42 180.79 584.42S215.97 585.93 250.99 585.93S286.19 570.53 321.19 570.53S357.11 586.05 391.39 586.05S427.54 573.65 461.59 573.65S498.35 582.54 531.79 582.54S568.51 579.87 601.99 579.87S637.91 581.6 672.19 581.6S709.6 578.27 742.38 578.27S778.13 575.71 812.58 575.71S847.97 587.07 882.78 587.07S918.25 576.04 952.98 576.04S989.37 574.49 1023.18 574.49S1058.65 591.18 1093.38 591.18S1128.56 574.61 1163.58 574.61S1199.28 580.89 1233.77 580.89S1269.11 587.39 1303.97 587.39S1340.88 586.46 1374.17 586.46S1410.7 579.01 1444.37 579.01S1480.03 572.82 1514.57 572.82S1551.42 589.25 1584.77 589.25S1621.83 586.21 1654.97 586.21S1691.81 572.37 1725.17 572.37S1761.36 584.53 1795.36 584.53S1832.38 580.46 1865.56 580.46S1901.11 591.4 1935.76 591.4S1972.2 574.1 2005.96 574.1S2042.44 585.99 2076.16 585.99L2020 937 L-100 937 Z" fill="#254346" stroke-width="0">
  <animate attributeName="d" dur="22.5s" repeatCount="indefinite" values="M-100 580.23C-62.78 571.45 -63.19 579.36 -29.8 579.36S6.61 587.5 40.4 587.5S77.18 592.48 110.6 592.48S147.46 584.42 180.79 584.42S215.97 585.93 250.99 585.93S286.19 570.53 321.19 570.53S357.11 586.05 391.39 586.05S427.54 573.65 461.59 573.65S498.35 582.54 531.79 582.54S568.51 579.87 601.99 579.87S637.91 581.6 672.19 581.6S709.6 578.27 742.38 578.27S778.13 575.71 812.58 575.71S847.97 587.07 882.78 587.07S918.25 576.04 952.98 576.04S989.37 574.49 1023.18 574.49S1058.65 591.18 1093.38 591.18S1128.56 574.61 1163.58 574.61S1199.28 580.89 1233.77 580.89S1269.11 587.39 1303.97 587.39S1340.88 586.46 1374.17 586.46S1410.7 579.01 1444.37 579.01S1480.03 572.82 1514.57 572.82S1551.42 589.25 1584.77 589.25S1621.83 586.21 1654.97 586.21S1691.81 572.37 1725.17 572.37S1761.36 584.53 1795.36 584.53S1832.38 580.46 1865.56 580.46S1901.11 591.4 1935.76 591.4S1972.2 574.1 2005.96 574.1S2042.44 585.99 2076.16 585.99L2020 937 L-100 937 Z;M-100 588.17C-62.74 587.48 -62.99 581.36 -29.8 581.36S5.56 589.92 40.4 589.92S76.14 579.43 110.6 579.43S146.81 569.38 180.79 569.38S217.05 579.59 250.99 579.59S287.98 578.29 321.19 578.29S356.54 573.18 391.39 573.18S428.26 585.24 461.59 585.24S497.26 592.28 531.79 592.28S568.5 575.18 601.99 575.18S638.3 584.56 672.19 584.56S707.88 580.72 742.38 580.72S778.97 585.1 812.58 585.1S849.22 577.72 882.78 577.72S918.3 584.5 952.98 584.5S989.98 583.43 1023.18 583.43S1060 575.9 1093.38 575.9S1128.5 570.93 1163.58 570.93S1198.99 576.22 1233.77 576.22S1270.7 573.84 1303.97 573.84S1341.03 589.13 1374.17 589.13S1410.45 578.05 1444.37 578.05S1480.36 568.56 1514.57 568.56S1550.11 582.19 1584.77 582.19S1621.93 579.17 1654.97 579.17S1691.39 588.29 1725.17 588.29S1761.29 575.3 1795.36 575.3S1831.86 587.35 1865.56 587.35S1901.96 576.71 1935.76 576.71S1973.17 570.83 2005.96 570.83S2041.36 574.93 2076.16 574.93L2020 937 L-100 937 Z;M-100 580.23C-62.78 571.45 -63.19 579.36 -29.8 579.36S6.61 587.5 40.4 587.5S77.18 592.48 110.6 592.48S147.46 584.42 180.79 584.42S215.97 585.93 250.99 585.93S286.19 570.53 321.19 570.53S357.11 586.05 391.39 586.05S427.54 573.65 461.59 573.65S498.35 582.54 531.79 582.54S568.51 579.87 601.99 579.87S637.91 581.6 672.19 581.6S709.6 578.27 742.38 578.27S778.13 575.71 812.58 575.71S847.97 587.07 882.78 587.07S918.25 576.04 952.98 576.04S989.37 574.49 1023.18 574.49S1058.65 591.18 1093.38 591.18S1128.56 574.61 1163.58 574.61S1199.28 580.89 1233.77 580.89S1269.11 587.39 1303.97 587.39S1340.88 586.46 1374.17 586.46S1410.7 579.01 1444.37 579.01S1480.03 572.82 1514.57 572.82S1551.42 589.25 1584.77 589.25S1621.83 586.21 1654.97 586.21S1691.81 572.37 1725.17 572.37S1761.36 584.53 1795.36 584.53S1832.38 580.46 1865.56 580.46S1901.11 591.4 1935.76 591.4S1972.2 574.1 2005.96 574.1S2042.44 585.99 2076.16 585.99L2020 937 L-100 937 Z"></animate>
  <animateTransform attributeName="transform" type="translate" dur="22.5s" begin="-2.25s" repeatCount="indefinite" values="0;10;0" calcMode="spline" keySplines="0.3 0 0.7 1;0.3 0 0.7 1"></animateTransform>
</path><path d="M-100 622.86C-61.84 605 -63.7 604.98 -27.89 604.98S8.31 610.94 44.22 610.94S81.1 621.84 116.33 621.84S153.17 603.8 188.44 603.8S224.58 618.81 260.54 618.81S298.52 606.38 332.65 606.38S369.57 614.08 404.76 614.08S442.08 593.31 476.87 593.31S513.4 597.9 548.98 597.9S585.45 591.35 621.09 591.35S657.87 605.74 693.2 605.74S730.95 608.8 765.31 608.8S803.16 622.84 837.41 622.84S873.61 601.57 909.52 601.57S946.09 615.66 981.63 615.66S1019.22 605.92 1053.74 605.92S1091.8 608.64 1125.85 608.64S1162.75 591.43 1197.96 591.43S1234.96 610.63 1270.07 610.63S1307.33 606.57 1342.18 606.57S1379.16 618.31 1414.29 618.31S1450.92 606.01 1486.39 606.01S1523.05 604.38 1558.5 604.38S1595.96 600.55 1630.61 600.55S1667.8 616.03 1702.72 616.03S1739.57 613.23 1774.83 613.23S1812.5 613.9 1846.94 613.9S1885.07 611.7 1919.05 611.7S1956.18 608.57 1991.16 608.57S2027.63 611.35 2063.27 611.35L2020 937 L-100 937 Z" fill="#3b5658" stroke-width="0">
  <animate attributeName="d" dur="20s" repeatCount="indefinite" values="M-100 622.86C-61.84 605 -63.7 604.98 -27.89 604.98S8.31 610.94 44.22 610.94S81.1 621.84 116.33 621.84S153.17 603.8 188.44 603.8S224.58 618.81 260.54 618.81S298.52 606.38 332.65 606.38S369.57 614.08 404.76 614.08S442.08 593.31 476.87 593.31S513.4 597.9 548.98 597.9S585.45 591.35 621.09 591.35S657.87 605.74 693.2 605.74S730.95 608.8 765.31 608.8S803.16 622.84 837.41 622.84S873.61 601.57 909.52 601.57S946.09 615.66 981.63 615.66S1019.22 605.92 1053.74 605.92S1091.8 608.64 1125.85 608.64S1162.75 591.43 1197.96 591.43S1234.96 610.63 1270.07 610.63S1307.33 606.57 1342.18 606.57S1379.16 618.31 1414.29 618.31S1450.92 606.01 1486.39 606.01S1523.05 604.38 1558.5 604.38S1595.96 600.55 1630.61 600.55S1667.8 616.03 1702.72 616.03S1739.57 613.23 1774.83 613.23S1812.5 613.9 1846.94 613.9S1885.07 611.7 1919.05 611.7S1956.18 608.57 1991.16 608.57S2027.63 611.35 2063.27 611.35L2020 937 L-100 937 Z;M-100 603.47C-63.16 619.15 -61.73 601.75 -27.89 601.75S8.8 609.67 44.22 609.67S80.91 600.67 116.33 600.67S153.28 594.31 188.44 594.31S226.66 600.36 260.54 600.36S296.94 603.29 332.65 603.29S370 602.2 404.76 602.2S441.4 601.87 476.87 601.87S514.81 621.14 548.98 621.14S587.12 600.61 621.09 600.61S658.94 615.89 693.2 615.89S731.12 597.42 765.31 597.42S802.73 621.52 837.41 621.52S875.2 599.47 909.52 599.47S947.66 599.69 981.63 599.69S1017.82 606.15 1053.74 606.15S1091.27 602.25 1125.85 602.25S1163.85 611.04 1197.96 611.04S1234.74 609.22 1270.07 609.22S1307.52 600.23 1342.18 600.23S1380.33 621.42 1414.29 621.42S1451.41 591.84 1486.39 591.84S1524.16 616.07 1558.5 616.07S1596 602.08 1630.61 602.08S1667.33 619.06 1702.72 619.06S1740.92 597.23 1774.83 597.23S1812.13 600.68 1846.94 600.68S1884.29 598.38 1919.05 598.38S1957.44 618.59 1991.16 618.59S2028.41 608.53 2063.27 608.53L2020 937 L-100 937 Z;M-100 622.86C-61.84 605 -63.7 604.98 -27.89 604.98S8.31 610.94 44.22 610.94S81.1 621.84 116.33 621.84S153.17 603.8 188.44 603.8S224.58 618.81 260.54 618.81S298.52 606.38 332.65 606.38S369.57 614.08 404.76 614.08S442.08 593.31 476.87 593.31S513.4 597.9 548.98 597.9S585.45 591.35 621.09 591.35S657.87 605.74 693.2 605.74S730.95 608.8 765.31 608.8S803.16 622.84 837.41 622.84S873.61 601.57 909.52 601.57S946.09 615.66 981.63 615.66S1019.22 605.92 1053.74 605.92S1091.8 608.64 1125.85 608.64S1162.75 591.43 1197.96 591.43S1234.96 610.63 1270.07 610.63S1307.33 606.57 1342.18 606.57S1379.16 618.31 1414.29 618.31S1450.92 606.01 1486.39 606.01S1523.05 604.38 1558.5 604.38S1595.96 600.55 1630.61 600.55S1667.8 616.03 1702.72 616.03S1739.57 613.23 1774.83 613.23S1812.5 613.9 1846.94 613.9S1885.07 611.7 1919.05 611.7S1956.18 608.57 1991.16 608.57S2027.63 611.35 2063.27 611.35L2020 937 L-100 937 Z"></animate>
  <animateTransform attributeName="transform" type="translate" dur="20s" begin="-4s" repeatCount="indefinite" values="0;10;0" calcMode="spline" keySplines="0.3 0 0.7 1;0.3 0 0.7 1"></animateTransform>
</path><path d="M-100 616.44C-62.44 614.5 -62.72 630.42 -25.87 630.42S12.07 631.71 48.25 631.71S86.12 617.72 122.38 617.72S161.35 624.76 196.5 624.76S234 648.07 270.63 648.07S309.54 637.39 344.76 637.39S382.19 650.5 418.88 650.5S456.48 634.64 493.01 634.64S530.79 634.54 567.13 634.54S605.59 628.01 641.26 628.01S679.2 630.04 715.38 630.04S754.08 630.78 789.51 630.78S827.69 639.62 863.64 639.62S902.05 636.51 937.76 636.51S976.89 636.78 1011.89 636.78S1049.94 627.91 1086.01 627.91S1123.63 638.22 1160.14 638.22S1197.9 646.59 1234.27 646.59S1272.9 650.09 1308.39 650.09S1346.03 618.57 1382.52 618.57S1420.58 633.37 1456.64 633.37S1495.89 621.46 1530.77 621.46S1569.49 625.55 1604.9 625.55S1643.66 616.99 1679.02 616.99S1716.1 630.39 1753.15 630.39S1790.45 632.97 1827.27 632.97S1866.43 646.24 1901.4 646.24S1940.19 633.98 1975.52 633.98S2012.77 617.9 2049.65 617.9L2020 937 L-100 937 Z" fill="#51696b" stroke-width="0">
  <animate attributeName="d" dur="17.5s" repeatCount="indefinite" values="M-100 616.44C-62.44 614.5 -62.72 630.42 -25.87 630.42S12.07 631.71 48.25 631.71S86.12 617.72 122.38 617.72S161.35 624.76 196.5 624.76S234 648.07 270.63 648.07S309.54 637.39 344.76 637.39S382.19 650.5 418.88 650.5S456.48 634.64 493.01 634.64S530.79 634.54 567.13 634.54S605.59 628.01 641.26 628.01S679.2 630.04 715.38 630.04S754.08 630.78 789.51 630.78S827.69 639.62 863.64 639.62S902.05 636.51 937.76 636.51S976.89 636.78 1011.89 636.78S1049.94 627.91 1086.01 627.91S1123.63 638.22 1160.14 638.22S1197.9 646.59 1234.27 646.59S1272.9 650.09 1308.39 650.09S1346.03 618.57 1382.52 618.57S1420.58 633.37 1456.64 633.37S1495.89 621.46 1530.77 621.46S1569.49 625.55 1604.9 625.55S1643.66 616.99 1679.02 616.99S1716.1 630.39 1753.15 630.39S1790.45 632.97 1827.27 632.97S1866.43 646.24 1901.4 646.24S1940.19 633.98 1975.52 633.98S2012.77 617.9 2049.65 617.9L2020 937 L-100 937 Z;M-100 620.38C-62.64 635.36 -61.28 632.24 -25.87 632.24S12.9 634.61 48.25 634.61S87.37 630.07 122.38 630.07S161.69 639.61 196.5 639.61S235.42 645.85 270.63 645.85S308.22 621.88 344.76 621.88S382.89 635.77 418.88 635.77S456.19 629.56 493.01 629.56S531.9 630.32 567.13 630.32S606.15 636.97 641.26 636.97S679.3 632.45 715.38 632.45S753.65 628.49 789.51 628.49S828.79 635.82 863.64 635.82S901.66 629.98 937.76 629.98S976.74 629.08 1011.89 629.08S1049.67 625.69 1086.01 625.69S1124.42 642.61 1160.14 642.61S1198.2 620.01 1234.27 620.01S1273.41 634.18 1308.39 634.18S1346.27 645.91 1382.52 645.91S1420.73 634.19 1456.64 634.19S1496.02 630.97 1530.77 630.97S1569.8 615.67 1604.9 615.67S1642.3 623.28 1679.02 623.28S1717.43 621.49 1753.15 621.49S1790.8 630.7 1827.27 630.7S1866.31 620.87 1901.4 620.87S1940.12 624.25 1975.52 624.25S2012.97 630.03 2049.65 630.03L2020 937 L-100 937 Z;M-100 616.44C-62.44 614.5 -62.72 630.42 -25.87 630.42S12.07 631.71 48.25 631.71S86.12 617.72 122.38 617.72S161.35 624.76 196.5 624.76S234 648.07 270.63 648.07S309.54 637.39 344.76 637.39S382.19 650.5 418.88 650.5S456.48 634.64 493.01 634.64S530.79 634.54 567.13 634.54S605.59 628.01 641.26 628.01S679.2 630.04 715.38 630.04S754.08 630.78 789.51 630.78S827.69 639.62 863.64 639.62S902.05 636.51 937.76 636.51S976.89 636.78 1011.89 636.78S1049.94 627.91 1086.01 627.91S1123.63 638.22 1160.14 638.22S1197.9 646.59 1234.27 646.59S1272.9 650.09 1308.39 650.09S1346.03 618.57 1382.52 618.57S1420.58 633.37 1456.64 633.37S1495.89 621.46 1530.77 621.46S1569.49 625.55 1604.9 625.55S1643.66 616.99 1679.02 616.99S1716.1 630.39 1753.15 630.39S1790.45 632.97 1827.27 632.97S1866.43 646.24 1901.4 646.24S1940.19 633.98 1975.52 633.98S2012.77 617.9 2049.65 617.9L2020 937 L-100 937 Z"></animate>
  <animateTransform attributeName="transform" type="translate" dur="17.5s" begin="-5.25s" repeatCount="indefinite" values="0;10;0" calcMode="spline" keySplines="0.3 0 0.7 1;0.3 0 0.7 1"></animateTransform>
</path><path d="M-100 650.3C-61.24 656 -60.33 676.9 -23.74 676.9S16.46 646.53 52.52 646.53S91.1 658.16 128.78 658.16S168.56 639.07 205.04 639.07S244.3 638.06 281.29 638.06S320.63 652.33 357.55 652.33S396.47 659.88 433.81 659.88S473.25 644.37 510.07 644.37S548.78 670.01 586.33 670.01S625.42 675.34 662.59 675.34S701.27 652.77 738.85 652.77S777.01 670.02 815.11 670.02S855.12 642.69 891.37 642.69S930.79 641.22 967.63 641.22S1007.25 679.04 1043.88 679.04S1083.99 644.8 1120.14 644.8S1159.27 670.15 1196.4 670.15S1234.96 639.99 1272.66 639.99S1311.9 664.89 1348.92 664.89S1388.01 652.76 1425.18 652.76S1465.61 667.44 1501.44 667.44S1539.67 649.46 1577.7 649.46S1616.33 677.81 1653.96 677.81S1692.46 650.66 1730.22 650.66S1770.11 665.07 1806.47 665.07S1846.03 668.48 1882.73 668.48S1922.44 673.21 1958.99 673.21S1997.24 643.23 2035.25 643.23L2020 937 L-100 937 Z" fill="#677d7f" stroke-width="0">
  <animate attributeName="d" dur="15s" repeatCount="indefinite" values="M-100 650.3C-61.24 656 -60.33 676.9 -23.74 676.9S16.46 646.53 52.52 646.53S91.1 658.16 128.78 658.16S168.56 639.07 205.04 639.07S244.3 638.06 281.29 638.06S320.63 652.33 357.55 652.33S396.47 659.88 433.81 659.88S473.25 644.37 510.07 644.37S548.78 670.01 586.33 670.01S625.42 675.34 662.59 675.34S701.27 652.77 738.85 652.77S777.01 670.02 815.11 670.02S855.12 642.69 891.37 642.69S930.79 641.22 967.63 641.22S1007.25 679.04 1043.88 679.04S1083.99 644.8 1120.14 644.8S1159.27 670.15 1196.4 670.15S1234.96 639.99 1272.66 639.99S1311.9 664.89 1348.92 664.89S1388.01 652.76 1425.18 652.76S1465.61 667.44 1501.44 667.44S1539.67 649.46 1577.7 649.46S1616.33 677.81 1653.96 677.81S1692.46 650.66 1730.22 650.66S1770.11 665.07 1806.47 665.07S1846.03 668.48 1882.73 668.48S1922.44 673.21 1958.99 673.21S1997.24 643.23 2035.25 643.23L2020 937 L-100 937 Z;M-100 659.5C-61.36 669.99 -59.91 671.48 -23.74 671.48S16.09 666.93 52.52 666.93S91.85 666.14 128.78 666.14S167.26 669.2 205.04 669.2S243.72 672.73 281.29 672.73S320.94 647.3 357.55 647.3S396.15 672.42 433.81 672.42S473.65 655.57 510.07 655.57S549.36 678.04 586.33 678.04S626.48 662.49 662.59 662.49S701.05 674.72 738.85 674.72S778.79 648.98 815.11 648.98S854.53 665.27 891.37 665.27S929.86 656.21 967.63 656.21S1005.79 656.84 1043.88 656.84S1082.63 645.32 1120.14 645.32S1159.42 656.24 1196.4 656.24S1234.99 651.49 1272.66 651.49S1311.44 643.75 1348.92 643.75S1389 638.51 1425.18 638.51S1464.54 659.19 1501.44 659.19S1541.67 653.24 1577.7 653.24S1616.85 671.1 1653.96 671.1S1693.87 653.34 1730.22 653.34S1768.93 677.82 1806.47 677.82S1846.42 642.57 1882.73 642.57S1921.69 659.73 1958.99 659.73S1998.65 659.8 2035.25 659.8L2020 937 L-100 937 Z;M-100 650.3C-61.24 656 -60.33 676.9 -23.74 676.9S16.46 646.53 52.52 646.53S91.1 658.16 128.78 658.16S168.56 639.07 205.04 639.07S244.3 638.06 281.29 638.06S320.63 652.33 357.55 652.33S396.47 659.88 433.81 659.88S473.25 644.37 510.07 644.37S548.78 670.01 586.33 670.01S625.42 675.34 662.59 675.34S701.27 652.77 738.85 652.77S777.01 670.02 815.11 670.02S855.12 642.69 891.37 642.69S930.79 641.22 967.63 641.22S1007.25 679.04 1043.88 679.04S1083.99 644.8 1120.14 644.8S1159.27 670.15 1196.4 670.15S1234.96 639.99 1272.66 639.99S1311.9 664.89 1348.92 664.89S1388.01 652.76 1425.18 652.76S1465.61 667.44 1501.44 667.44S1539.67 649.46 1577.7 649.46S1616.33 677.81 1653.96 677.81S1692.46 650.66 1730.22 650.66S1770.11 665.07 1806.47 665.07S1846.03 668.48 1882.73 668.48S1922.44 673.21 1958.99 673.21S1997.24 643.23 2035.25 643.23L2020 937 L-100 937 Z"></animate>
  <animateTransform attributeName="transform" type="translate" dur="15s" begin="-6s" repeatCount="indefinite" values="0;10;0" calcMode="spline" keySplines="0.3 0 0.7 1;0.3 0 0.7 1"></animateTransform>
</path><path d="M-100 676.81C-59.34 665.18 -60.31 706.42 -21.48 706.42S18.76 687.82 57.04 687.82S97.93 688.63 135.56 688.63S175.89 663.16 214.07 663.16S254.28 697.19 292.59 697.19S332.3 674.37 371.11 674.37S411.64 695.9 449.63 695.9S490 674.1 528.15 674.1S568.33 689.59 606.67 689.59S646.91 673.27 685.19 673.27S725.07 698.88 763.7 698.88S803.21 674.57 842.22 674.57S881.79 705.84 920.74 705.84S962.07 678.78 999.26 678.78S1038.76 689.44 1077.78 689.44S1117.71 667.69 1156.3 667.69S1196.34 695.74 1234.81 695.74S1275.36 667.08 1313.33 667.08S1354.42 706.96 1391.85 706.96S1432.95 683.42 1470.37 683.42S1510.58 689.22 1548.89 689.22S1588.53 677.94 1627.41 677.94S1667.87 673.18 1705.93 673.18S1746.22 661.41 1784.44 661.41S1824 700 1862.96 700S1903.58 682.37 1941.48 682.37S1982.02 699.8 2020 699.8S2059.63 668.19 2098.52 668.19L2020 937 L-100 937 Z" fill="#7e9193" stroke-width="0">
  <animate attributeName="d" dur="12.5s" repeatCount="indefinite" values="M-100 676.81C-59.34 665.18 -60.31 706.42 -21.48 706.42S18.76 687.82 57.04 687.82S97.93 688.63 135.56 688.63S175.89 663.16 214.07 663.16S254.28 697.19 292.59 697.19S332.3 674.37 371.11 674.37S411.64 695.9 449.63 695.9S490 674.1 528.15 674.1S568.33 689.59 606.67 689.59S646.91 673.27 685.19 673.27S725.07 698.88 763.7 698.88S803.21 674.57 842.22 674.57S881.79 705.84 920.74 705.84S962.07 678.78 999.26 678.78S1038.76 689.44 1077.78 689.44S1117.71 667.69 1156.3 667.69S1196.34 695.74 1234.81 695.74S1275.36 667.08 1313.33 667.08S1354.42 706.96 1391.85 706.96S1432.95 683.42 1470.37 683.42S1510.58 689.22 1548.89 689.22S1588.53 677.94 1627.41 677.94S1667.87 673.18 1705.93 673.18S1746.22 661.41 1784.44 661.41S1824 700 1862.96 700S1903.58 682.37 1941.48 682.37S1982.02 699.8 2020 699.8S2059.63 668.19 2098.52 668.19L2020 937 L-100 937 Z;M-100 680.52C-60.62 662.83 -60.55 674.14 -21.48 674.14S18.26 674.12 57.04 674.12S98.01 700.23 135.56 700.23S175.86 692.81 214.07 692.81S253.71 689.52 292.59 689.52S333.64 667.67 371.11 667.67S411.43 702.07 449.63 702.07S489.4 663.59 528.15 663.59S569.72 692.14 606.67 692.14S647.47 690.79 685.19 690.79S724.54 686.67 763.7 686.67S804.49 667.48 842.22 667.48S882.21 703.83 920.74 703.83S960.63 692.76 999.26 692.76S1039.41 701.29 1077.78 701.29S1118.2 674.13 1156.3 674.13S1196.93 705.14 1234.81 705.14S1275.77 660.71 1313.33 660.71S1354.08 693.46 1391.85 693.46S1432.67 678.17 1470.37 678.17S1511.35 697.76 1548.89 697.76S1589.28 662.31 1627.41 662.31S1666.78 707.42 1705.93 707.42S1746.12 683.85 1784.44 683.85S1825.13 697.07 1862.96 697.07S1902.99 688.46 1941.48 688.46S1982.49 672.7 2020 672.7S2060.22 674.74 2098.52 674.74L2020 937 L-100 937 Z;M-100 676.81C-59.34 665.18 -60.31 706.42 -21.48 706.42S18.76 687.82 57.04 687.82S97.93 688.63 135.56 688.63S175.89 663.16 214.07 663.16S254.28 697.19 292.59 697.19S332.3 674.37 371.11 674.37S411.64 695.9 449.63 695.9S490 674.1 528.15 674.1S568.33 689.59 606.67 689.59S646.91 673.27 685.19 673.27S725.07 698.88 763.7 698.88S803.21 674.57 842.22 674.57S881.79 705.84 920.74 705.84S962.07 678.78 999.26 678.78S1038.76 689.44 1077.78 689.44S1117.71 667.69 1156.3 667.69S1196.34 695.74 1234.81 695.74S1275.36 667.08 1313.33 667.08S1354.42 706.96 1391.85 706.96S1432.95 683.42 1470.37 683.42S1510.58 689.22 1548.89 689.22S1588.53 677.94 1627.41 677.94S1667.87 673.18 1705.93 673.18S1746.22 661.41 1784.44 661.41S1824 700 1862.96 700S1903.58 682.37 1941.48 682.37S1982.02 699.8 2020 699.8S2059.63 668.19 2098.52 668.19L2020 937 L-100 937 Z"></animate>
  <animateTransform attributeName="transform" type="translate" dur="12.5s" begin="-6.25s" repeatCount="indefinite" values="0;10;0" calcMode="spline" keySplines="0.3 0 0.7 1;0.3 0 0.7 1"></animateTransform>
</path><path d="M-100 706.34C-58.45 707.15 -59.11 717.73 -19.08 717.73S21.54 693.04 61.83 693.04S103.24 729.66 142.75 729.66S184.76 700.87 223.66 700.87S264.9 717.56 304.58 717.56S346.33 703.62 385.5 703.62S426.26 713.01 466.41 713.01S506.98 707.22 547.33 707.22S590.1 733.29 628.24 733.29S669.13 701.77 709.16 701.77S751.8 718.72 790.08 718.72S832.25 702.88 870.99 702.88S912.54 727.55 951.91 727.55S993.29 707.35 1032.82 707.35S1074.04 730.86 1113.74 730.86S1154.55 693.62 1194.66 693.62S1235.78 734.5 1275.57 734.5S1316.85 684.19 1356.49 684.19S1397.8 726.41 1437.4 726.41S1479.88 697.88 1518.32 697.88S1559.58 734.04 1599.24 734.04S1640.41 687.13 1680.15 687.13S1721.77 698.68 1761.07 698.68S1803.16 706.54 1841.98 706.54S1884.08 722.89 1922.9 722.89S1963.72 684.08 2003.82 684.08S2045.21 723.27 2084.73 723.27L2020 937 L-100 937 Z" fill="#95a6a7" stroke-width="0">
  <animate attributeName="d" dur="10s" repeatCount="indefinite" values="M-100 706.34C-58.45 707.15 -59.11 717.73 -19.08 717.73S21.54 693.04 61.83 693.04S103.24 729.66 142.75 729.66S184.76 700.87 223.66 700.87S264.9 717.56 304.58 717.56S346.33 703.62 385.5 703.62S426.26 713.01 466.41 713.01S506.98 707.22 547.33 707.22S590.1 733.29 628.24 733.29S669.13 701.77 709.16 701.77S751.8 718.72 790.08 718.72S832.25 702.88 870.99 702.88S912.54 727.55 951.91 727.55S993.29 707.35 1032.82 707.35S1074.04 730.86 1113.74 730.86S1154.55 693.62 1194.66 693.62S1235.78 734.5 1275.57 734.5S1316.85 684.19 1356.49 684.19S1397.8 726.41 1437.4 726.41S1479.88 697.88 1518.32 697.88S1559.58 734.04 1599.24 734.04S1640.41 687.13 1680.15 687.13S1721.77 698.68 1761.07 698.68S1803.16 706.54 1841.98 706.54S1884.08 722.89 1922.9 722.89S1963.72 684.08 2003.82 684.08S2045.21 723.27 2084.73 723.27L2020 937 L-100 937 Z;M-100 703.18C-58.03 705.11 -57.22 707.18 -19.08 707.18S22.39 702.91 61.83 702.91S104.2 728.91 142.75 728.91S185.39 728.62 223.66 728.62S264.22 730.03 304.58 730.03S346.72 688.64 385.5 688.64S427.88 728.02 466.41 728.02S507.67 696.69 547.33 696.69S588.81 707.41 628.24 707.41S670.64 695.96 709.16 695.96S751.48 729.08 790.08 729.08S832.09 699.86 870.99 699.86S911.81 720.63 951.91 720.63S992.76 684.87 1032.82 684.87S1074.59 719.57 1113.74 719.57S1156.38 704.3 1194.66 704.3S1235.29 718.03 1275.57 718.03S1316.49 687.99 1356.49 687.99S1398.03 699.43 1437.4 699.43S1480.02 706.16 1518.32 706.16S1560.37 720.55 1599.24 720.55S1641.92 684.37 1680.15 684.37S1721.48 725.52 1761.07 725.52S1803.72 690.47 1841.98 690.47S1883.12 729.55 1922.9 729.55S1964.37 691.93 2003.82 691.93S2045.1 722.64 2084.73 722.64L2020 937 L-100 937 Z;M-100 706.34C-58.45 707.15 -59.11 717.73 -19.08 717.73S21.54 693.04 61.83 693.04S103.24 729.66 142.75 729.66S184.76 700.87 223.66 700.87S264.9 717.56 304.58 717.56S346.33 703.62 385.5 703.62S426.26 713.01 466.41 713.01S506.98 707.22 547.33 707.22S590.1 733.29 628.24 733.29S669.13 701.77 709.16 701.77S751.8 718.72 790.08 718.72S832.25 702.88 870.99 702.88S912.54 727.55 951.91 727.55S993.29 707.35 1032.82 707.35S1074.04 730.86 1113.74 730.86S1154.55 693.62 1194.66 693.62S1235.78 734.5 1275.57 734.5S1316.85 684.19 1356.49 684.19S1397.8 726.41 1437.4 726.41S1479.88 697.88 1518.32 697.88S1559.58 734.04 1599.24 734.04S1640.41 687.13 1680.15 687.13S1721.77 698.68 1761.07 698.68S1803.16 706.54 1841.98 706.54S1884.08 722.89 1922.9 722.89S1963.72 684.08 2003.82 684.08S2045.21 723.27 2084.73 723.27L2020 937 L-100 937 Z"></animate>
  <animateTransform attributeName="transform" type="translate" dur="10s" begin="-6s" repeatCount="indefinite" values="0;10;0" calcMode="spline" keySplines="0.3 0 0.7 1;0.3 0 0.7 1"></animateTransform>
</path><path d="M-100 760.64C-56.72 752.85 -56.18 742.87 -16.54 742.87S25.96 721.95 66.93 721.95S109.76 761.31 150.39 761.31S194.42 728.6 233.86 728.6S277.4 751.15 317.32 751.15S360.12 712.74 400.79 712.74S442.55 740.68 484.25 740.68S528.15 709.61 567.72 709.61S611.78 746.09 651.18 746.09S693.57 719.07 734.65 719.07S777.82 755.61 818.11 755.61S861.88 718.22 901.57 718.22S943.41 741.74 985.04 741.74S1027.46 727.52 1068.5 727.52S1111.55 761.53 1151.97 761.53S1195.08 712.73 1235.43 712.73S1279.26 759.01 1318.9 759.01S1362.42 708.6 1402.36 708.6S1446.42 745.28 1485.83 745.28S1528.36 728.85 1569.29 728.85S1612.87 744.12 1652.76 744.12S1695.17 725.23 1736.22 725.23S1780.29 760.96 1819.69 760.96S1863.36 710.3 1903.15 710.3S1946.67 741.8 1986.61 741.8S2029.74 714.42 2070.08 714.42L2020 937 L-100 937 Z" fill="#adbcbc" stroke-width="0">
  <animate attributeName="d" dur="7.5s" repeatCount="indefinite" values="M-100 760.64C-56.72 752.85 -56.18 742.87 -16.54 742.87S25.96 721.95 66.93 721.95S109.76 761.31 150.39 761.31S194.42 728.6 233.86 728.6S277.4 751.15 317.32 751.15S360.12 712.74 400.79 712.74S442.55 740.68 484.25 740.68S528.15 709.61 567.72 709.61S611.78 746.09 651.18 746.09S693.57 719.07 734.65 719.07S777.82 755.61 818.11 755.61S861.88 718.22 901.57 718.22S943.41 741.74 985.04 741.74S1027.46 727.52 1068.5 727.52S1111.55 761.53 1151.97 761.53S1195.08 712.73 1235.43 712.73S1279.26 759.01 1318.9 759.01S1362.42 708.6 1402.36 708.6S1446.42 745.28 1485.83 745.28S1528.36 728.85 1569.29 728.85S1612.87 744.12 1652.76 744.12S1695.17 725.23 1736.22 725.23S1780.29 760.96 1819.69 760.96S1863.36 710.3 1903.15 710.3S1946.67 741.8 1986.61 741.8S2029.74 714.42 2070.08 714.42L2020 937 L-100 937 Z;M-100 741.46C-57.27 762.79 -56.46 730.76 -16.54 730.76S27.51 725.64 66.93 725.64S109.04 751.03 150.39 751.03S192.33 727.06 233.86 727.06S276.75 749.38 317.32 749.38S359.74 710.87 400.79 710.87S444.41 760.98 484.25 760.98S527.25 708.6 567.72 708.6S610.89 763.44 651.18 763.44S694.51 716.96 734.65 716.96S776.6 762.49 818.11 762.49S860.27 727.37 901.57 727.37S943.86 752.4 985.04 752.4S1027.1 727.31 1068.5 727.31S1110.89 742.11 1151.97 742.11S1194.16 745.25 1235.43 745.25S1278.16 753.14 1318.9 753.14S1360.99 715.7 1402.36 715.7S1445.17 740.55 1485.83 740.55S1529.31 717.79 1569.29 717.79S1611.77 756.96 1652.76 756.96S1696.28 752.73 1736.22 752.73S1780.23 761.83 1819.69 761.83S1861.63 730.09 1903.15 730.09S1945.3 743.79 1986.61 743.79S2028.61 726.69 2070.08 726.69L2020 937 L-100 937 Z;M-100 760.64C-56.72 752.85 -56.18 742.87 -16.54 742.87S25.96 721.95 66.93 721.95S109.76 761.31 150.39 761.31S194.42 728.6 233.86 728.6S277.4 751.15 317.32 751.15S360.12 712.74 400.79 712.74S442.55 740.68 484.25 740.68S528.15 709.61 567.72 709.61S611.78 746.09 651.18 746.09S693.57 719.07 734.65 719.07S777.82 755.61 818.11 755.61S861.88 718.22 901.57 718.22S943.41 741.74 985.04 741.74S1027.46 727.52 1068.5 727.52S1111.55 761.53 1151.97 761.53S1195.08 712.73 1235.43 712.73S1279.26 759.01 1318.9 759.01S1362.42 708.6 1402.36 708.6S1446.42 745.28 1485.83 745.28S1528.36 728.85 1569.29 728.85S1612.87 744.12 1652.76 744.12S1695.17 725.23 1736.22 725.23S1780.29 760.96 1819.69 760.96S1863.36 710.3 1903.15 710.3S1946.67 741.8 1986.61 741.8S2029.74 714.42 2070.08 714.42L2020 937 L-100 937 Z"></animate>
  <animateTransform attributeName="transform" type="translate" dur="7.5s" begin="-5.25s" repeatCount="indefinite" values="0;10;0" calcMode="spline" keySplines="0.3 0 0.7 1;0.3 0 0.7 1"></animateTransform>
</path><path d="M-100 737.45C-56.33 743.49 -54.79 770.55 -13.82 770.55S30.31 779.33 72.36 779.33S115.7 770.48 158.54 770.48S201.85 738.06 244.72 738.06S289.7 772.54 330.89 772.54S375.02 740.63 417.07 740.63S461.85 783.49 503.25 783.49S546.62 735.12 589.43 735.12S634.17 774.51 675.61 774.51S719.06 776.58 761.79 776.58S806.74 782.68 847.97 782.68S892.78 744.65 934.15 744.65S979.38 779.97 1020.33 779.97S1065.22 748.04 1106.5 748.04S1149.8 786.59 1192.68 786.59S1237.57 736.6 1278.86 736.6S1322.51 772.9 1365.04 772.9S1409.07 744.72 1451.22 744.72S1496.51 774.86 1537.4 774.86S1580.58 740.88 1623.58 740.88S1667.35 782.35 1709.76 782.35S1754.78 748.08 1795.93 748.08S1840.51 774.34 1882.11 774.34S1926.29 736.95 1968.29 736.95S2013.37 782.41 2054.47 782.41L2020 937 L-100 937 Z" fill="#c6d2d2" stroke-width="0">
  <animate attributeName="d" dur="5s" repeatCount="indefinite" values="M-100 737.45C-56.33 743.49 -54.79 770.55 -13.82 770.55S30.31 779.33 72.36 779.33S115.7 770.48 158.54 770.48S201.85 738.06 244.72 738.06S289.7 772.54 330.89 772.54S375.02 740.63 417.07 740.63S461.85 783.49 503.25 783.49S546.62 735.12 589.43 735.12S634.17 774.51 675.61 774.51S719.06 776.58 761.79 776.58S806.74 782.68 847.97 782.68S892.78 744.65 934.15 744.65S979.38 779.97 1020.33 779.97S1065.22 748.04 1106.5 748.04S1149.8 786.59 1192.68 786.59S1237.57 736.6 1278.86 736.6S1322.51 772.9 1365.04 772.9S1409.07 744.72 1451.22 744.72S1496.51 774.86 1537.4 774.86S1580.58 740.88 1623.58 740.88S1667.35 782.35 1709.76 782.35S1754.78 748.08 1795.93 748.08S1840.51 774.34 1882.11 774.34S1926.29 736.95 1968.29 736.95S2013.37 782.41 2054.47 782.41L2020 937 L-100 937 Z;M-100 737.96C-55.1 751.15 -56.21 789.07 -13.82 789.07S29.66 746.3 72.36 746.3S115.63 790.13 158.54 790.13S203.85 753.76 244.72 753.76S288.74 785.71 330.89 785.71S374.92 746.42 417.07 746.42S460.58 784.46 503.25 784.46S546.52 752.78 589.43 752.78S634.63 783.85 675.61 783.85S720.55 750.63 761.79 750.63S805.57 785.47 847.97 785.47S892.48 731.43 934.15 731.43S979.58 781.92 1020.33 781.92S1065.46 731.52 1106.5 731.52S1150.2 791.25 1192.68 791.25S1237.53 751.38 1278.86 751.38S1323 778.73 1365.04 778.73S1408.25 775.67 1451.22 775.67S1494.39 789.47 1537.4 789.47S1581.96 731.48 1623.58 731.48S1666.84 772.59 1709.76 772.59S1754.3 741.4 1795.93 741.4S1839.59 787.6 1882.11 787.6S1926.61 731.21 1968.29 731.21S2011.49 743.57 2054.47 743.57L2020 937 L-100 937 Z;M-100 737.45C-56.33 743.49 -54.79 770.55 -13.82 770.55S30.31 779.33 72.36 779.33S115.7 770.48 158.54 770.48S201.85 738.06 244.72 738.06S289.7 772.54 330.89 772.54S375.02 740.63 417.07 740.63S461.85 783.49 503.25 783.49S546.62 735.12 589.43 735.12S634.17 774.51 675.61 774.51S719.06 776.58 761.79 776.58S806.74 782.68 847.97 782.68S892.78 744.65 934.15 744.65S979.38 779.97 1020.33 779.97S1065.22 748.04 1106.5 748.04S1149.8 786.59 1192.68 786.59S1237.57 736.6 1278.86 736.6S1322.51 772.9 1365.04 772.9S1409.07 744.72 1451.22 744.72S1496.51 774.86 1537.4 774.86S1580.58 740.88 1623.58 740.88S1667.35 782.35 1709.76 782.35S1754.78 748.08 1795.93 748.08S1840.51 774.34 1882.11 774.34S1926.29 736.95 1968.29 736.95S2013.37 782.41 2054.47 782.41L2020 937 L-100 937 Z"></animate>
  <animateTransform attributeName="transform" type="translate" dur="5s" begin="-4s" repeatCount="indefinite" values="0;10;0" calcMode="spline" keySplines="0.3 0 0.7 1;0.3 0 0.7 1"></animateTransform>
</path><path d="M-100 805.46C-53.69 814.95 -54.3 811.06 -10.92 811.06S34.48 772.15 78.15 772.15S124.82 802.48 167.23 802.48S212.21 776.45 256.3 776.45S302.37 806.45 345.38 806.45S390.8 761.46 434.45 761.46S480.52 772.3 523.53 772.3S568.94 768.21 612.61 768.21S657.29 810.32 701.68 810.32S747.12 770.45 790.76 770.45S836.69 800.22 879.83 800.22S925.22 776.23 968.91 776.23S1013.5 796.49 1057.98 796.49S1103.73 777.5 1147.06 777.5S1192.26 810.88 1236.13 810.88S1282.45 805.59 1325.21 805.59S1370.64 810.18 1414.29 810.18S1460.36 767.02 1503.36 767.02S1549.24 819.35 1592.44 819.35S1637.78 765.23 1681.51 765.23S1727.54 815.02 1770.59 815.02S1815.58 761.67 1859.66 761.67S1906.02 817.07 1948.74 817.07S1994 772.86 2037.82 772.86L2020 937 L-100 937 Z" fill="#dfe8e8" stroke-width="0">
  <animate attributeName="d" dur="2.5s" repeatCount="indefinite" values="M-100 805.46C-53.69 814.95 -54.3 811.06 -10.92 811.06S34.48 772.15 78.15 772.15S124.82 802.48 167.23 802.48S212.21 776.45 256.3 776.45S302.37 806.45 345.38 806.45S390.8 761.46 434.45 761.46S480.52 772.3 523.53 772.3S568.94 768.21 612.61 768.21S657.29 810.32 701.68 810.32S747.12 770.45 790.76 770.45S836.69 800.22 879.83 800.22S925.22 776.23 968.91 776.23S1013.5 796.49 1057.98 796.49S1103.73 777.5 1147.06 777.5S1192.26 810.88 1236.13 810.88S1282.45 805.59 1325.21 805.59S1370.64 810.18 1414.29 810.18S1460.36 767.02 1503.36 767.02S1549.24 819.35 1592.44 819.35S1637.78 765.23 1681.51 765.23S1727.54 815.02 1770.59 815.02S1815.58 761.67 1859.66 761.67S1906.02 817.07 1948.74 817.07S1994 772.86 2037.82 772.86L2020 937 L-100 937 Z;M-100 802.47C-54.76 817.75 -53.65 777.54 -10.92 777.54S34.75 766.87 78.15 766.87S123.79 801.43 167.23 801.43S212.22 777.06 256.3 777.06S302.88 797.5 345.38 797.5S389.95 797.11 434.45 797.11S480.51 814.6 523.53 814.6S569.44 756.69 612.61 756.69S658.25 817.58 701.68 817.58S747.95 799.54 790.76 799.54S835.94 808.76 879.83 808.76S925.55 768.21 968.91 768.21S1015.35 812.07 1057.98 812.07S1104.73 797.12 1147.06 797.12S1193.71 811.29 1236.13 811.29S1281.03 773.35 1325.21 773.35S1371.33 804.14 1414.29 804.14S1459.99 771.34 1503.36 771.34S1548.93 814.08 1592.44 814.08S1638.86 764.16 1681.51 764.16S1727.72 799.41 1770.59 799.41S1815.18 764.03 1859.66 764.03S1905.22 806.44 1948.74 806.44S1995.28 805.38 2037.82 805.38L2020 937 L-100 937 Z;M-100 805.46C-53.69 814.95 -54.3 811.06 -10.92 811.06S34.48 772.15 78.15 772.15S124.82 802.48 167.23 802.48S212.21 776.45 256.3 776.45S302.37 806.45 345.38 806.45S390.8 761.46 434.45 761.46S480.52 772.3 523.53 772.3S568.94 768.21 612.61 768.21S657.29 810.32 701.68 810.32S747.12 770.45 790.76 770.45S836.69 800.22 879.83 800.22S925.22 776.23 968.91 776.23S1013.5 796.49 1057.98 796.49S1103.73 777.5 1147.06 777.5S1192.26 810.88 1236.13 810.88S1282.45 805.59 1325.21 805.59S1370.64 810.18 1414.29 810.18S1460.36 767.02 1503.36 767.02S1549.24 819.35 1592.44 819.35S1637.78 765.23 1681.51 765.23S1727.54 815.02 1770.59 815.02S1815.58 761.67 1859.66 761.67S1906.02 817.07 1948.74 817.07S1994 772.86 2037.82 772.86L2020 937 L-100 937 Z"></animate>
  <animateTransform attributeName="transform" type="translate" dur="2.5s" begin="-2.25s" repeatCount="indefinite" values="0;10;0" calcMode="spline" keySplines="0.3 0 0.7 1;0.3 0 0.7 1"></animateTransform>
</path></g>
</svg>