<?xml version="1.0" encoding="utf-8"?><svg xmlns="http://www.w3.org/2000/svg" xmlns:xlink="http://www.w3.org/1999/xlink" style="margin:auto;background:#f1f2f3;display:block;z-index:1;position:relative" width="1920" height="1074" preserveAspectRatio="xMidYMid" viewBox="0 0 1920 1074">
<g transform="translate(960,537) scale(1,1) translate(-960,-537)"><linearGradient id="lg-0.1763420066986312" x1="0" x2="1" y1="0" y2="0">
  <stop stop-color="#51cacc" offset="0"></stop>
  <stop stop-color="#9df871" offset="1"></stop>
</linearGradient><path d="M 1558 537 C 1558 705 1276 966 1116 1018 C 956 1070 552 1041 453 905 C 354 769 457 379 556 243 C 655 107 947 31 1107 83 C 1267 135 1558 369 1558 537" fill="url(#lg-0.1763420066986312)" opacity="0.4">
  <animate attributeName="d" dur="10s" repeatCount="indefinite" keyTimes="0;0.3333333333333333;0.6666666666666666;1" calcmod="spline" keySplines="0.3 0.1 0.7 0.9;0.3 0.1 0.7 0.9;0.3 0.1 0.7 0.9" begin="-4s" values="M 1558 537 C 1558 705 1276 966 1116 1018 C 956 1070 552 1041 453 905 C 354 769 457 379 556 243 C 655 107 947 31 1107 83 C 1267 135 1558 369 1558 537;M 1530 537 C 1530 706 1273 952 1112 1004 C 951 1056 570 1030 471 893 C 372 756 428 359 527 222 C 626 85 955 5 1116 57 C 1277 109 1530 368 1530 537;M 1622 537 C 1622 705 1269 946 1110 998 C 951 1050 613 997 514 861 C 415 725 384 326 483 190 C 582 54 920 114 1080 166 C 1240 218 1622 369 1622 537;M 1558 537 C 1558 705 1276 966 1116 1018 C 956 1070 552 1041 453 905 C 354 769 457 379 556 243 C 655 107 947 31 1107 83 C 1267 135 1558 369 1558 537"></animate>
</path><path d="M 1627 537 C 1627 714 1253 864 1084 919 C 915 974 531 1068 427 924 C 323 780 444 380 548 237 C 652 94 914 102 1083 157 C 1252 212 1627 360 1627 537" fill="url(#lg-0.1763420066986312)" opacity="0.4">
  <animate attributeName="d" dur="10s" repeatCount="indefinite" keyTimes="0;0.3333333333333333;0.6666666666666666;1" calcmod="spline" keySplines="0.3 0.1 0.7 0.9;0.3 0.1 0.7 0.9;0.3 0.1 0.7 0.9" begin="-4s" values="M 1627 537 C 1627 714 1253 864 1084 919 C 915 974 531 1068 427 924 C 323 780 444 380 548 237 C 652 94 914 102 1083 157 C 1252 212 1627 360 1627 537;M 1550 537 C 1550 704 1263 931 1104 982 C 945 1033 609 999 511 864 C 413 729 402 338 500 203 C 598 68 940 57 1099 109 C 1258 161 1550 370 1550 537;M 1588 537 C 1588 702 1233 843 1076 894 C 919 945 594 1007 497 874 C 400 741 368 311 465 178 C 562 45 938 70 1095 121 C 1252 172 1588 372 1588 537;M 1627 537 C 1627 714 1253 864 1084 919 C 915 974 531 1068 427 924 C 323 780 444 380 548 237 C 652 94 914 102 1083 157 C 1252 212 1627 360 1627 537"></animate>
</path><path d="M 1465 537 C 1465 695 1248 913 1098 962 C 948 1011 664 947 571 819 C 478 691 496 395 589 267 C 682 139 937 96 1087 145 C 1237 194 1465 379 1465 537" fill="url(#lg-0.1763420066986312)" opacity="0.4">
  <animate attributeName="d" dur="10s" repeatCount="indefinite" keyTimes="0;0.3333333333333333;0.6666666666666666;1" calcmod="spline" keySplines="0.3 0.1 0.7 0.9;0.3 0.1 0.7 0.9;0.3 0.1 0.7 0.9" begin="-4s" values="M 1465 537 C 1465 695 1248 913 1098 962 C 948 1011 664 947 571 819 C 478 691 496 395 589 267 C 682 139 937 96 1087 145 C 1237 194 1465 379 1465 537;M 1600 537 C 1600 703 1247 883 1089 934 C 931 985 623 988 525 853 C 427 718 456 377 554 242 C 652 107 928 97 1086 148 C 1244 199 1600 371 1600 537;M 1622 537 C 1622 706 1251 884 1090 936 C 929 988 668 958 569 821 C 470 684 400 339 500 202 C 600 65 938 57 1099 109 C 1260 161 1622 368 1622 537;M 1465 537 C 1465 695 1248 913 1098 962 C 948 1011 664 947 571 819 C 478 691 496 395 589 267 C 682 139 937 96 1087 145 C 1237 194 1465 379 1465 537"></animate>
</path><path d="M 1486 537 C 1486 693 1241 894 1092 942 C 943 990 599 993 507 866 C 415 739 476 378 568 252 C 660 126 933 112 1082 160 C 1231 208 1486 381 1486 537" fill="url(#lg-0.1763420066986312)" opacity="0.4">
  <animate attributeName="d" dur="10s" repeatCount="indefinite" keyTimes="0;0.3333333333333333;0.6666666666666666;1" calcmod="spline" keySplines="0.3 0.1 0.7 0.9;0.3 0.1 0.7 0.9;0.3 0.1 0.7 0.9" begin="-4s" values="M 1486 537 C 1486 693 1241 894 1092 942 C 943 990 599 993 507 866 C 415 739 476 378 568 252 C 660 126 933 112 1082 160 C 1231 208 1486 381 1486 537;M 1559 537 C 1559 714 1275 937 1107 991 C 939 1045 652 979 548 836 C 444 693 445 381 549 238 C 653 95 958 -29 1126 26 C 1294 81 1559 360 1559 537;M 1652 537 C 1652 718 1289 960 1116 1016 C 943 1072 590 1031 483 884 C 376 737 370 333 477 186 C 584 39 952 -27 1125 29 C 1298 85 1652 356 1652 537;M 1486 537 C 1486 693 1241 894 1092 942 C 943 990 599 993 507 866 C 415 739 476 378 568 252 C 660 126 933 112 1082 160 C 1231 208 1486 381 1486 537"></animate>
</path><path d="M 1599 537 C 1599 714 1253 866 1085 921 C 917 976 595 1021 491 878 C 387 735 369 326 473 183 C 577 40 911 115 1079 170 C 1247 225 1599 360 1599 537" fill="url(#lg-0.1763420066986312)" opacity="0.4">
  <animate attributeName="d" dur="10s" repeatCount="indefinite" keyTimes="0;0.3333333333333333;0.6666666666666666;1" calcmod="spline" keySplines="0.3 0.1 0.7 0.9;0.3 0.1 0.7 0.9;0.3 0.1 0.7 0.9" begin="-4s" values="M 1599 537 C 1599 714 1253 866 1085 921 C 917 976 595 1021 491 878 C 387 735 369 326 473 183 C 577 40 911 115 1079 170 C 1247 225 1599 360 1599 537;M 1635 537 C 1635 710 1269 928 1105 982 C 941 1036 563 1039 461 899 C 359 759 344 304 446 164 C 548 24 931 69 1095 123 C 1259 177 1635 364 1635 537;M 1537 537 C 1537 714 1258 881 1090 936 C 922 991 549 1054 445 911 C 341 768 448 384 552 241 C 656 98 924 75 1092 130 C 1260 185 1537 360 1537 537;M 1599 537 C 1599 714 1253 866 1085 921 C 917 976 595 1021 491 878 C 387 735 369 326 473 183 C 577 40 911 115 1079 170 C 1247 225 1599 360 1599 537"></animate>
</path></g>
</svg>